<svg version="1.1" id="Layer_1" xmlns="http://www.w3.org/2000/svg" xmlns:xlink="http://www.w3.org/1999/xlink" x="0px" y="0px"
	 width="100%" viewBox="0 0 1024 1024" enable-background="new 0 0 1024 1024" xml:space="preserve">
<path fill="#000000" opacity="1.000000" stroke="none" 
	d="
M443.892212,938.368896 
	C446.629639,931.402954 452.359985,928.867004 458.442505,926.732544 
	C461.874359,925.528137 465.284729,924.251160 468.651306,922.876038 
	C470.716522,922.032532 472.398987,920.590759 473.124725,918.410095 
	C474.649719,913.827820 477.935181,912.765442 482.453064,912.738159 
	C498.649780,912.640503 507.607330,906.025452 512.151062,890.664246 
	C513.901917,884.745117 512.043274,878.856140 510.641388,872.987305 
	C508.399689,863.602844 506.317719,854.240906 501.247833,845.815491 
	C499.513977,842.934021 497.442657,841.476807 494.104889,841.304077 
	C483.970978,840.779602 479.432770,834.590515 482.084991,824.788940 
	C482.821808,822.065979 483.502472,819.309387 484.343903,816.636353 
	C485.470215,813.058411 487.354248,809.956299 492.159149,810.571289 
	C493.892822,810.793274 495.802063,810.220032 497.538147,809.699402 
	C499.672699,809.059326 501.881470,807.876099 501.516937,805.303345 
	C501.169128,802.848816 498.749298,801.942810 496.593536,801.848328 
	C494.132080,801.740356 491.608521,802.137573 489.168854,802.609558 
	C481.023041,804.185181 477.604309,801.809998 476.460083,793.735657 
	C474.239838,778.067871 467.895233,764.064697 459.140472,751.035583 
	C453.576263,742.754700 447.151886,735.079529 442.298859,726.288208 
	C436.848816,716.415344 436.283752,706.858704 442.635468,697.159241 
	C447.728943,689.381226 450.834015,680.488342 456.379089,672.898621 
	C459.153442,669.101318 462.562317,665.957397 465.507965,662.358582 
	C471.480225,655.062134 475.250366,646.221985 482.448364,639.736694 
	C487.909393,634.816467 493.554352,630.184631 499.472137,625.894226 
	C508.070312,619.660522 513.869446,612.056824 512.701294,600.832092 
	C512.231934,596.321899 514.257996,592.350525 515.238159,588.268799 
	C517.226868,579.987427 516.888245,571.487366 518.658630,563.218323 
	C519.379883,559.849304 521.122986,556.751465 520.876160,553.064575 
	C520.543701,548.100037 518.732361,545.366089 513.726318,545.452087 
	C503.339142,545.630554 493.267914,544.048828 483.316071,541.313782 
	C478.013123,539.856445 472.708740,538.264099 468.639648,534.357788 
	C462.090759,528.070923 453.451050,527.394653 445.330658,525.339050 
	C442.197327,524.545898 439.332367,526.227478 436.822784,527.644653 
	C431.571289,530.610107 427.595245,528.620117 423.749084,525.209167 
	C422.759064,524.331177 421.563202,523.400513 421.116302,522.241699 
	C418.501678,515.461670 412.632874,513.164246 406.405060,511.765289 
	C402.394836,510.864410 398.899353,509.047607 395.457306,507.119385 
	C390.407043,504.290192 385.614502,503.853394 380.328278,506.570892 
	C366.388184,513.737244 348.272064,505.570618 343.986115,493.876221 
	C341.961761,488.352692 342.056213,482.671387 343.556946,477.237488 
	C346.059662,468.175751 348.638367,459.142578 350.753906,449.977539 
	C352.346039,443.080109 356.093079,437.153625 359.600800,431.129242 
	C363.272736,424.822784 362.608276,420.242981 357.105682,415.781311 
	C354.177460,413.407043 353.338104,410.071808 352.051880,406.856506 
	C346.325897,392.542450 347.715088,385.274384 359.056122,374.803253 
	C368.300781,366.267670 378.798645,359.249786 390.797607,355.527588 
	C401.088104,352.335388 412.758331,355.982941 419.670349,367.012115 
	C421.722992,370.287506 423.413391,372.760834 427.892303,373.001221 
	C432.544006,373.250763 435.506042,376.903351 437.473907,380.923187 
	C442.093231,390.359161 442.521973,400.043121 438.667969,409.864532 
	C437.639313,412.485840 436.702362,415.150269 435.532745,417.707764 
	C432.768585,423.751923 430.026215,429.209015 434.595581,436.241669 
	C436.901367,439.790497 435.654999,445.596527 437.235718,450.190033 
	C437.772827,451.750916 438.006287,453.431976 438.666779,454.931152 
	C439.770355,457.436005 441.292267,459.765228 444.425507,459.752472 
	C447.361725,459.740540 448.982452,457.505432 449.785767,455.157166 
	C451.868439,449.068817 456.104034,444.763214 460.640594,440.523193 
	C463.837006,437.535797 465.031311,434.117706 463.595337,429.319244 
	C461.288269,421.609772 463.123444,413.877228 465.695557,406.404633 
	C467.281036,401.798248 465.658203,398.175140 460.924438,397.547028 
	C456.855927,397.007202 454.447815,394.759186 452.987549,391.542572 
	C449.607758,384.097961 446.078613,376.811218 440.339050,370.819153 
	C439.691284,370.142883 438.873932,368.512451 439.108978,368.270508 
	C444.883057,362.326782 435.509094,359.328125 436.362579,353.697418 
	C437.160339,348.434448 431.997162,343.961578 428.994873,339.393860 
	C427.544373,337.186981 425.369324,336.012177 422.892487,335.376099 
	C418.167572,334.162659 408.784546,324.286560 408.142853,319.768250 
	C407.868347,317.835297 408.809967,316.220978 409.563873,314.556030 
	C413.864655,305.058014 421.387817,298.584991 429.902283,293.120483 
	C439.444092,286.996582 449.457489,281.558624 460.633606,279.401428 
	C468.578125,277.867981 476.830139,277.227356 484.973877,278.371552 
	C488.746307,278.901581 492.536041,278.422546 496.335022,279.593689 
	C505.663483,282.469421 510.593323,288.892303 513.864807,297.775513 
	C518.406616,310.107971 521.176636,322.791260 523.255005,335.674622 
	C523.727173,338.601685 517.723572,345.636475 514.889954,346.113312 
	C513.381287,346.367157 512.368591,345.563019 511.345581,344.666931 
	C510.122711,343.595795 509.356110,341.922119 507.965363,341.749786 
	C494.633942,354.294312 497.088745,369.132751 501.310455,384.193024 
	C501.798462,385.933838 502.579712,388.067627 504.647400,388.163300 
	C507.221405,388.282410 509.243500,386.135956 509.918427,384.167023 
	C511.093933,380.737671 513.336304,379.344543 516.404785,378.074249 
	C519.547363,376.773346 521.299438,374.202637 520.510925,370.431213 
	C519.882629,367.426147 520.254700,364.538849 522.682068,361.100861 
	C525.970642,365.689178 529.009033,369.845276 531.949951,374.069153 
	C533.279480,375.978638 534.393494,378.036835 535.643127,380.003571 
	C539.144287,385.513824 540.717590,385.943512 546.818237,383.148926 
	C548.142944,382.542084 549.493225,381.991241 550.649658,381.493042 
	C552.405518,382.752441 552.102539,384.223175 551.448425,385.295776 
	C546.952026,392.668518 542.331482,399.965546 537.264038,408.065125 
	C535.322998,400.010529 539.796326,391.473083 534.118103,384.628876 
	C531.405823,385.672180 534.125488,388.584259 531.294983,389.472260 
	C531.235413,385.337372 528.233337,383.291901 524.977051,382.341858 
	C521.615173,381.360992 518.469116,383.514801 515.685303,385.254578 
	C510.011414,388.800476 504.636810,392.305298 505.520599,400.753876 
	C505.963593,404.988403 504.389648,409.633820 502.255066,413.705963 
	C498.969513,419.973785 502.373077,425.264496 504.854797,430.652374 
	C505.294800,431.607666 506.430664,431.753174 507.441467,431.929474 
	C511.255066,432.594543 520.056091,427.686005 521.487000,424.095062 
	C521.953430,422.924622 521.750793,421.863190 521.351196,420.716583 
	C518.125488,411.460175 519.326294,403.046753 526.052673,395.560730 
	C527.669067,396.699249 527.373047,398.254700 526.856628,399.265533 
	C522.356018,408.074860 524.343750,417.380737 525.115906,426.413879 
	C525.670532,432.902069 528.838013,438.584259 535.260559,441.730347 
	C536.975098,442.570251 539.274170,443.356720 539.393860,445.663452 
	C539.514465,447.990601 537.037537,448.203217 535.558411,449.084320 
	C528.313171,453.399994 528.291809,453.364136 522.829468,447.294373 
	C518.522583,442.508514 516.199829,442.548248 512.104370,447.548523 
	C511.156342,448.706024 510.388062,450.008972 509.476410,451.198547 
	C508.620087,452.315948 508.421265,454.058746 506.199249,454.483704 
	C504.973175,451.170105 506.397278,448.499146 508.401764,446.429230 
	C511.428040,443.304230 510.043060,441.384155 507.416504,439.116119 
	C504.689575,436.761414 502.220520,436.245270 499.621429,439.090332 
	C495.124969,444.012360 492.030212,449.678375 491.357086,456.362000 
	C490.991974,459.987091 491.076019,463.692688 491.325287,467.336792 
	C491.784637,474.053253 496.383575,478.473816 504.166077,479.725952 
	C513.430298,481.216461 519.316284,487.444885 524.909119,494.146240 
	C525.109741,494.386658 525.223999,494.752655 525.249268,495.070404 
	C525.272888,495.367462 525.124390,495.678162 524.982788,496.271210 
	C522.393127,496.048920 521.124451,493.920654 519.534302,492.414398 
	C507.737579,481.240326 493.826294,480.181274 479.037781,484.167725 
	C473.797211,485.580444 467.481293,496.853058 468.191742,502.396667 
	C468.564026,505.301666 470.911682,506.175812 473.156372,506.556366 
	C476.871124,507.186157 480.323639,505.413025 483.770569,504.389435 
	C485.543152,503.863068 485.757507,501.830261 484.107513,500.342834 
	C482.895935,499.250580 481.241730,498.570496 480.857086,496.746948 
	C484.481781,493.076721 488.248932,492.624542 491.488068,496.179993 
	C497.689056,502.986572 504.405304,508.453613 513.956787,509.974365 
	C517.876343,510.598419 519.432678,513.995667 517.846313,518.611328 
	C521.034790,518.275208 523.911926,517.971924 527.252686,517.619751 
	C526.038879,521.848511 523.105103,523.841431 519.790405,525.263794 
	C516.460327,526.692749 516.076355,528.555237 518.033142,531.445984 
	C520.591858,535.226135 522.180969,540.165527 528.110229,539.698059 
	C533.957153,539.236938 536.401550,535.169067 538.394043,530.230469 
	C543.915771,516.544617 551.911438,504.247314 560.435425,492.282928 
	C569.180054,480.008728 574.667664,466.373474 577.591614,451.644318 
	C578.108765,449.039276 578.664673,446.435181 579.361267,443.873779 
	C581.357666,436.532684 582.217468,435.918915 589.659790,435.947632 
	C594.291443,435.965515 598.839966,437.593750 603.843750,436.277863 
	C603.980774,439.410126 601.882141,440.151978 600.014404,441.001404 
	C588.795654,446.103210 586.297485,450.882294 588.544678,462.638794 
	C588.885010,464.419006 590.139587,465.085968 591.340210,465.902466 
	C597.071045,469.799591 601.326050,475.182617 605.880432,480.262604 
	C606.770203,481.255035 607.497742,482.378021 607.333984,483.706818 
	C606.734558,484.973633 605.606262,485.107574 604.696228,484.921783 
	C599.246399,483.809143 593.829651,482.610657 589.851196,488.029022 
	C587.932800,485.885986 589.183899,484.678345 589.861755,483.440094 
	C592.408142,478.788452 591.742004,475.601807 587.005371,473.280518 
	C584.181763,471.896790 581.434326,470.669312 579.172852,466.742584 
	C572.539062,480.472992 565.342285,492.771393 557.354980,504.649963 
	C559.957886,506.183594 560.845337,503.046722 563.062866,503.640686 
	C563.382935,506.054840 561.493469,507.760925 560.771240,509.817169 
	C559.896545,512.307190 558.289429,514.698547 560.890137,517.154114 
	C561.263123,517.506287 561.445496,518.495911 561.228821,518.965820 
	C559.889587,521.870239 559.170166,524.751343 561.770386,527.278259 
	C565.533691,530.935669 568.709961,535.362427 574.848022,535.591187 
	C582.045959,535.859497 589.220154,535.630432 596.268433,534.414917 
	C605.360413,532.846985 612.103882,522.568176 611.974915,511.063080 
	C611.895447,503.982849 610.695374,496.893585 612.731079,489.866791 
	C613.230103,488.144409 612.859192,486.104980 614.442932,484.814117 
	C622.156555,478.526947 624.998474,469.152649 629.191833,460.774048 
	C632.449707,454.264618 632.284729,446.540222 630.417908,439.701233 
	C628.251892,431.766479 627.411255,424.005554 628.762573,416.040253 
	C630.373901,406.542542 626.049011,398.903412 621.663269,391.226166 
	C620.125061,388.533569 618.361816,385.969513 616.095581,382.390015 
	C620.362305,383.555847 621.893921,386.026154 623.363586,388.492065 
	C628.384277,396.915680 632.884949,405.572723 634.782654,415.322998 
	C635.066650,416.782257 635.224182,418.287323 635.242615,419.773651 
	C635.343445,427.921387 637.848022,435.732239 638.685425,443.717041 
	C639.647217,452.887604 639.836365,462.140076 638.106995,471.472168 
	C635.302612,486.604492 627.045532,499.814545 623.819519,514.705872 
	C622.439697,521.075378 620.093262,527.261230 622.770935,534.175049 
	C624.768982,539.333984 623.231567,545.210144 624.562927,550.886292 
	C626.400635,558.721741 630.686523,565.510925 632.398315,573.310242 
	C634.795288,584.231506 639.582092,594.771240 639.145203,606.129089 
	C638.631714,619.479675 637.363647,632.842590 631.374451,645.177429 
	C627.985474,652.157104 628.491638,659.729126 629.921448,666.728760 
	C632.026062,677.031677 635.509583,687.103699 640.027039,696.684326 
	C642.051147,700.977112 641.422607,704.730591 639.013611,708.460571 
	C637.568481,710.698242 635.967468,712.835999 634.542114,715.085571 
	C630.394836,721.630798 630.704163,732.954163 635.220154,739.225891 
	C636.720825,741.310059 638.593018,742.452515 641.425110,742.754028 
	C660.380127,744.772217 677.047791,751.748962 686.357910,769.259033 
	C696.017456,787.426453 707.320984,804.647095 716.501099,823.049316 
	C725.320374,840.728149 737.547485,856.068176 749.352295,871.696472 
	C753.171021,876.752075 755.761841,882.362793 756.737610,888.389771 
	C757.980713,896.067627 759.814758,903.723816 759.316772,911.653076 
	C758.808044,919.753296 751.465698,924.879700 743.714600,922.500366 
	C736.232910,920.203735 728.429382,920.925293 720.923340,921.772949 
	C715.009033,922.440857 709.157410,923.431763 703.169067,923.393127 
	C692.670044,923.325378 682.170227,923.379578 671.670776,923.375366 
	C664.707397,923.372559 657.851440,923.098877 651.144165,926.174744 
	C644.542847,929.202087 637.402954,924.987122 628.773926,927.235779 
	C633.669739,920.431946 631.383057,913.052612 635.854309,907.108887 
	C640.238220,901.281067 645.602844,898.095276 652.600525,896.591858 
	C662.586426,894.446411 671.849792,890.705566 679.220032,883.081421 
	C685.050110,877.050293 686.239014,871.102966 682.330688,863.649658 
	C676.181335,851.922791 670.464294,848.815002 657.032471,849.898071 
	C649.375427,850.515381 647.243958,848.239502 648.478821,840.764709 
	C650.086853,831.031006 648.236511,826.705566 639.129822,822.977966 
	C631.908569,820.022156 629.525574,814.090759 626.770813,807.750549 
	C622.802368,798.617432 617.255676,790.741333 607.580505,786.433716 
	C601.525208,783.737610 595.695801,780.437439 590.048462,776.949402 
	C584.408630,773.466003 580.255493,768.621460 578.601440,761.889526 
	C578.061646,759.692505 577.000793,757.507385 575.719421,755.629944 
	C571.623047,749.627808 566.465332,744.426025 563.562073,737.502686 
	C562.165955,734.173401 558.426331,732.988281 554.576843,733.375244 
	C548.314148,734.005005 543.247498,731.115295 538.602173,727.484558 
	C534.816467,724.525635 535.073242,722.424683 539.107727,719.885803 
	C540.516907,718.998901 542.031372,718.283142 542.885498,716.727478 
	C543.707397,715.230469 543.578064,713.812439 542.493347,712.556274 
	C540.951477,710.770691 538.544800,710.557434 536.976440,711.536926 
	C530.201904,715.768005 522.323608,715.535034 515.001831,717.486816 
	C513.313782,717.936707 511.837036,718.666382 511.408020,720.539856 
	C510.779816,723.283203 512.426880,725.154480 514.383789,726.393738 
	C520.792786,730.452576 525.913330,735.918030 531.211670,741.204590 
	C537.938904,747.916565 540.983276,756.623962 543.313599,765.404297 
	C546.564941,777.654602 545.228699,790.596985 547.604126,802.931824 
	C549.834106,814.511353 550.240051,826.278931 552.636108,837.836121 
	C554.338745,846.049133 555.145325,854.480164 557.196472,862.668762 
	C558.874268,869.366455 560.673584,876.040588 562.103333,882.792053 
	C564.414917,893.707336 568.009216,904.091187 572.657898,914.270508 
	C574.453369,918.202087 574.733582,923.299316 575.062744,927.809448 
	C575.514526,934.000671 575.836426,940.019043 578.643433,945.682373 
	C579.914490,948.246704 577.848389,949.404846 576.123047,950.308044 
	C572.385071,952.264648 568.363525,953.130432 564.096924,953.129883 
	C527.265991,953.125305 490.433197,952.993713 453.605438,953.354675 
	C444.995209,953.439087 440.295380,949.767517 443.892212,938.368896 
M585.122925,561.463501 
	C585.329407,558.478577 588.103455,560.541870 589.667969,559.148254 
	C588.281128,554.064941 584.548096,558.657776 582.381348,556.744202 
	C582.373230,559.502502 583.852234,560.658386 584.741516,562.638062 
	C584.084290,563.679382 584.313843,565.377502 582.623413,565.628357 
	C578.591858,564.004944 582.977051,558.866394 578.982788,556.900757 
	C577.355347,559.808472 582.401550,563.746155 576.520813,565.904114 
	C574.974670,559.042358 575.263306,552.254639 575.202637,545.515198 
	C575.198792,545.094177 576.229004,544.210876 576.527588,544.308472 
	C580.370361,545.565857 583.899109,542.935608 587.634277,543.726501 
	C588.392761,540.783936 587.650208,539.463318 584.543335,539.572021 
	C579.751587,539.739868 574.916931,539.933716 570.161377,539.478943 
	C566.460327,539.125122 564.734619,540.368835 564.751953,544.924011 
	C563.700317,542.569763 564.336670,539.776611 562.973206,540.009644 
	C559.049988,540.680237 554.750183,538.213440 551.246338,541.179077 
	C550.095764,542.152954 549.240845,543.778748 549.635803,545.633972 
	C551.151245,545.565552 551.434021,542.854675 554.081238,544.474609 
	C553.302368,545.825317 552.514648,547.191284 551.728821,548.558289 
	C554.478027,552.513306 556.849976,552.746765 560.588074,549.359497 
	C561.419983,550.965698 562.482483,552.531311 563.190735,554.044800 
	C564.485535,556.811829 564.423889,560.751526 562.536865,562.707886 
	C560.669800,564.643616 558.084595,562.183472 556.014771,560.422119 
	C557.309387,559.071350 560.641235,561.836243 559.859131,557.724915 
	C555.677368,557.274780 551.740906,554.639893 547.235168,555.883118 
	C546.716309,558.574158 549.936279,559.241394 549.861450,561.139099 
	C549.658020,566.297119 553.109619,566.938965 556.719543,566.669312 
	C559.905823,566.431396 562.838501,567.048157 565.901917,567.367126 
	C573.298828,568.137207 580.838501,567.621582 588.316895,567.456116 
	C589.953552,567.419922 591.860962,566.885315 590.374268,563.989075 
	C587.561279,566.256287 586.029297,564.697388 585.122925,561.463501 
M575.579346,614.820374 
	C565.667847,611.397278 563.634338,611.255127 560.126404,617.111450 
	C555.305664,625.159546 547.842224,629.552612 540.082886,633.678955 
	C528.764771,639.697754 517.489075,645.766724 506.812988,652.886230 
	C504.787262,654.237122 502.426178,655.283142 501.668335,658.146118 
	C502.536041,658.951721 503.450562,659.664124 504.200592,660.520447 
	C507.780334,664.607788 511.086914,664.852234 515.525146,661.158997 
	C521.780579,655.953552 528.633240,651.435791 536.033203,647.902466 
	C538.624268,646.665344 541.598267,645.571045 544.009827,647.765869 
	C546.637146,650.157043 544.962952,653.072693 543.791626,655.596680 
	C539.658264,664.503174 535.440430,673.370911 531.183899,682.219421 
	C529.604614,685.502502 530.233154,688.228943 533.381470,689.845581 
	C536.596802,691.496582 537.809753,688.706299 538.938477,686.503235 
	C542.657349,679.244568 545.893005,671.706421 550.047180,664.710754 
	C555.219482,656.000610 556.589783,645.403931 563.737122,637.736572 
	C569.569031,631.480225 575.354614,625.183899 580.180298,617.845642 
	C579.262939,616.425903 577.784851,615.729675 575.579346,614.820374 
M399.765717,465.898254 
	C399.862091,459.564972 399.640228,453.198212 404.115540,447.863800 
	C405.541595,446.164062 405.194031,443.946960 403.960968,442.233368 
	C398.985077,435.318359 393.352478,428.895386 385.132050,425.953217 
	C378.245056,423.488220 372.956787,428.792694 373.653992,436.228455 
	C374.302734,443.146759 376.996155,450.140259 372.524750,457.036682 
	C371.038544,459.329041 370.818756,462.745544 371.153809,465.804047 
	C371.560181,469.513794 372.907318,472.247437 377.323517,472.004761 
	C379.926270,471.861786 382.109924,473.174774 384.418335,474.135651 
	C392.045563,477.310547 397.333435,474.701599 399.765717,465.898254 
M471.553955,353.269592 
	C473.757568,352.924133 477.169556,350.596466 477.374451,354.727356 
	C477.616882,359.615173 476.781616,364.733643 471.708282,368.107635 
	C469.046417,365.305664 465.992279,363.248535 462.022125,364.122955 
	C458.861938,364.819000 456.931641,367.159119 457.380798,370.282013 
	C457.876282,373.727142 460.631073,371.851074 462.605499,371.742554 
	C468.093872,371.440857 473.820496,368.740570 478.353363,375.028748 
	C479.943726,377.234894 483.717346,376.899078 486.488434,374.578033 
	C491.925964,370.023651 492.977692,364.103180 492.708008,357.467987 
	C492.401550,349.927765 492.567230,349.921021 499.205353,347.728607 
	C498.902954,345.955872 498.592651,344.136932 498.232483,342.025574 
	C495.348022,344.122162 493.384064,343.891388 492.491638,340.380981 
	C492.231934,339.359406 491.470520,338.685852 490.290588,338.715820 
	C489.020020,338.748138 488.474915,339.602234 488.457672,340.664215 
	C488.398376,344.314575 486.142334,345.912292 482.985535,345.705444 
	C479.457581,345.474182 480.041168,342.205048 479.783417,339.866180 
	C479.193939,334.517517 477.315521,330.250916 471.649353,328.528839 
	C469.554474,327.892120 467.719452,326.712036 466.786346,324.524780 
	C466.035156,322.764130 464.697815,321.877106 462.797913,322.442993 
	C461.175934,322.926117 459.587708,323.723969 459.333405,325.643524 
	C459.099304,327.410675 458.720581,329.215088 460.392853,330.728271 
	C465.577332,335.419556 465.756561,338.085663 461.426788,343.230469 
	C458.255798,346.998322 458.807251,350.050995 463.040405,352.659607 
	C465.516815,354.185699 468.115601,354.003845 471.553955,353.269592 
M498.378418,686.009399 
	C516.750854,683.007874 519.892761,681.526794 525.820557,664.543457 
	C522.621704,666.293884 519.530884,667.868774 516.556580,669.639282 
	C511.833038,672.451050 507.918060,671.899231 504.260345,667.605103 
	C500.772278,663.510132 496.317505,660.340027 491.387634,658.371887 
	C485.960449,656.205261 480.331482,656.840820 479.920807,660.810303 
	C479.443420,665.424683 477.666656,669.873352 477.992523,674.579346 
	C478.271240,678.604553 479.654510,682.560974 483.790192,683.581482 
	C488.253479,684.682861 492.738281,686.268005 498.378418,686.009399 
M575.702698,610.889954 
	C576.658875,611.167236 577.659058,611.343689 578.563843,611.738708 
	C583.347046,613.827148 585.015198,611.798584 586.458618,607.147522 
	C589.773376,596.466187 589.237976,585.526306 589.834778,574.644470 
	C589.955444,572.444946 588.961609,571.169617 586.736450,570.972046 
	C584.591187,570.781494 582.440613,570.494690 580.294189,570.509216 
	C577.108276,570.530762 574.960205,571.694458 574.944580,575.458374 
	C574.928833,579.264038 574.762451,583.104919 574.208923,586.863647 
	C573.492859,591.726379 574.645325,596.995483 571.963745,601.412659 
	C568.541626,607.049744 568.595459,607.720581 575.702698,610.889954 
M375.333527,369.839325 
	C373.620422,371.415222 371.843903,372.928589 370.211304,374.583893 
	C368.418152,376.401978 367.998810,378.565033 368.866241,381.029205 
	C369.739471,383.509949 371.379303,384.831360 374.004211,385.051514 
	C376.656036,385.273834 379.299377,385.597290 381.946136,385.879364 
	C385.480469,386.255951 388.911621,385.567749 392.343384,384.878937 
	C395.091705,384.327240 397.221191,382.868256 396.901337,379.888275 
	C396.317139,374.445007 399.392761,368.113495 394.948151,363.728210 
	C391.506714,360.332764 383.914307,361.864044 380.287048,365.341919 
	C378.846588,366.723053 377.343872,368.039246 375.333527,369.839325 
M435.096497,482.546448 
	C433.442383,486.898438 431.749969,491.236389 430.150391,495.608368 
	C429.350677,497.794128 428.197021,500.253754 431.640717,501.287109 
	C434.834595,502.245453 435.491028,499.923157 436.349945,497.592712 
	C439.787659,488.265289 439.837189,488.283508 449.068542,491.424896 
	C455.187958,493.507294 456.639679,492.500488 457.070129,485.666199 
	C452.771454,483.317474 448.148926,481.619385 443.434387,480.826019 
	C442.150482,478.323120 444.471191,476.454529 443.907623,474.183716 
	C441.636383,472.767456 439.850800,473.435699 438.582092,475.645721 
	C437.424194,477.662567 436.432617,479.774902 435.096497,482.546448 
M394.894714,399.669373 
	C393.131714,399.189331 391.321533,398.835602 389.617126,398.198730 
	C387.245697,397.312622 385.089569,396.626556 383.962891,399.853546 
	C382.896301,402.908447 384.515717,404.590790 386.993134,405.777344 
	C392.562988,408.444946 397.070007,406.935883 400.755829,401.191589 
	C399.401123,399.500244 397.374725,400.232605 394.894714,399.669373 
M493.860718,506.008972 
	C492.912537,505.387115 492.113831,504.446869 490.072388,504.628906 
	C493.276245,507.153381 491.683014,511.987640 495.644409,513.626343 
	C498.999817,515.014465 502.521881,517.236755 506.159271,513.702515 
	C503.387695,509.105316 498.206390,508.860596 493.860718,506.008972 
M591.165344,539.829468 
	C589.647339,543.903320 589.993713,547.877747 591.359009,552.055176 
	C594.606018,549.997070 594.606018,549.997070 593.148315,544.646606 
	C593.623047,544.334473 594.117126,543.917297 594.682983,543.655029 
	C596.307373,542.902100 598.586365,542.391907 597.435181,539.936890 
	C596.147949,537.191772 594.605042,539.202332 593.149597,540.064758 
	C592.832764,540.252563 592.212830,539.928772 591.165344,539.829468 
M466.382660,488.553955 
	C461.569122,495.323608 461.219543,503.390625 459.540405,511.074982 
	C462.726807,503.967438 465.258820,496.666046 466.382660,488.553955 
M595.773254,562.581055 
	C593.128723,562.765198 592.955139,564.211182 594.112061,567.285095 
	C595.799561,564.362061 600.518005,569.411255 600.588196,563.760681 
	C600.624146,560.864319 598.066528,562.124207 595.773254,562.581055 
M603.642761,558.664612 
	C606.330933,556.925781 604.312317,555.615356 603.048645,554.666382 
	C601.943237,553.836365 600.256714,553.997314 599.892517,555.611694 
	C599.371338,557.921997 600.821655,558.833191 603.642761,558.664612 
M597.439697,546.101196 
	C596.179871,547.242065 596.021973,548.482544 596.901306,549.873840 
	C598.127502,549.662292 597.780273,547.643738 599.107971,548.133545 
	C601.247803,548.923096 600.912476,547.407654 600.770813,546.396545 
	C600.426331,543.938049 599.065857,545.252258 597.439697,546.101196 
z"/>
<path fill="#000000" opacity="1.000000" stroke="none" 
	d="
M542.653992,341.960052 
	C545.584534,342.447876 548.078857,342.885590 550.573120,343.323303 
	C545.596436,346.776581 540.217651,345.958893 534.943787,345.786346 
	C534.070801,345.757782 533.574707,344.927399 533.718750,343.969208 
	C533.856323,343.053711 534.496643,342.403931 535.329285,342.321503 
	C537.616638,342.095215 539.920410,342.035553 542.653992,341.960052 
z"/>
<path fill="#000000" opacity="1.000000" stroke="none" 
	d="
M580.684204,477.484009 
	C579.692810,479.689026 578.769165,481.601562 577.793152,483.486969 
	C577.677673,483.710022 577.275085,483.784454 576.636475,484.124084 
	C576.127625,481.239502 577.190063,478.985077 578.685547,476.925018 
	C579.229492,476.175629 580.260864,475.476196 580.684204,477.484009 
z"/>
</svg>