<?xml version="1.0" encoding="utf-8"?>
<svg xmlns="http://www.w3.org/2000/svg" viewBox="63.47 89.832 343.077 257.407" style="">
  <g transform="matrix(0.394905, 0, 0, 0.319487, 79.043981, 85.460454)" style="">
    <g id="layer1">
      <g>
        <g style="fill:rgb(0,0,0); fill-opacity:1.0; stroke-linejoin: miter">
          <path d="M149.75041,301.40146Q146.2704,301.4791,145.45842,305.4369L145.45041,785.9565Q145.78885,790.35547,149.92094,790.5321L348.28363,790.5321Q352.42166,790.33887,352.71927,785.874L352.71927,784.8544L297.81082,784.70245L297.81082,781.9322L289.46667,781.9322L289.22495,781.93134L262.86905,781.8399L254.41084,781.81055L154.0504,781.46234L154.0504,310.48325L344.1126,310.00143L344.1193,310.00143L344.1187,473.23367L344.11868,481.83365L352.71927,481.83365L352.71927,473.23367L352.71927,306.29684Q352.9181,305.67856,352.2679,303.78152Q351.3272,301.68448,348.3842,301.40146 Z"/>
        </g>
        <g style="fill:rgb(0,0,0); fill-opacity:1.0; stroke-linejoin: miter">
          <path d="M450.36163,481.83365L450.36163,784.6129L379.8009,784.92926L262.86902,784.60583L262.87363,481.83365L449.97537,481.83365 M258.56903,473.23367Q254.597,473.6205,254.26903,477.58008L254.41483,790.3435Q255.13556,793.10657,258.52512,793.52893L324.09293,793.5292L454.83255,793.5259Q457.60773,793.2896,458.68738,790.7435L458.8944,476.77206Q457.85712,473.25345,454.54065,473.23367L258.64352,473.23367"/>
        </g>
        <g style="fill:rgb(0,0,0); fill-opacity:1.0; stroke-linejoin: miter">
          <path d="M293.51083,13.682439Q288.6009,14.742775,289.21085,18.93728L289.21606,301.40146L289.21622,310.1406L297.81082,310.1188L297.81082,301.40146L297.81082,23.038778L539.53107,22.28244L539.79315,22.28244L539.79315,785.8025L539.65967,786.9273L483.4698,786.9273L458.68994,786.8782L297.81082,786.55896L297.81082,781.9322L289.46667,781.9322L289.22495,781.93134L289.22513,791.58057Q289.33322,792.7115,289.8521,793.52905Q290.86475,795.1245,293.44186,795.5267L429.117,795.5272L544.02783,795.5272Q544.1346,795.5319,544.23914,795.5319Q547.14325,795.5319,548.339,791.9118L548.3895,17.80526Q548.1617,14.353769,544.2374,13.684813L293.64133,13.682439 Z"/>
        </g>
        <g style="fill:rgb(0,0,0); fill-opacity:1.0; stroke-linejoin: miter">
          <path d="M289.21924,473.23367L289.2194,481.83365L297.81082,481.83365L297.81082,473.23367 Z"/>
        </g>
        <g style="fill:rgb(0,0,0); fill-opacity:1.0; stroke-linejoin: miter">
          <path d="M186.6451,365.57724L186.4862,386.17728L203.56433,386.32303L207.51782,386.3312L207.69185,365.75684L186.6758,365.5775"/>
        </g>
        <g style="fill:rgb(0,0,0); fill-opacity:1.0; stroke-linejoin: miter">
          <path d="M224.8057,366.36588L224.64679,386.9659L241.72495,387.11166L245.67844,387.11984L245.85245,366.54547L224.8364,366.36615"/>
        </g>
        <g style="fill:rgb(0,0,0); fill-opacity:1.0; stroke-linejoin: miter">
          <path d="M261.7677,367.91733L261.60883,388.51736L278.68692,388.66312L282.64038,388.6713L282.81442,368.09692L261.7984,367.9176"/>
        </g>
        <g style="fill:rgb(0,0,0); fill-opacity:1.0; stroke-linejoin: miter">
          <path d="M299.92822,368.70596L299.76932,389.306L316.84747,389.45175L320.80093,389.45993L320.97495,368.88556L299.95892,368.70624"/>
        </g>
        <g style="fill:rgb(0,0,0); fill-opacity:1.0; stroke-linejoin: miter">
          <path d="M185.3418,417.13727L185.1829,437.7373L202.26105,437.8831L206.21454,437.89127L206.38857,417.31686L185.3725,417.1375"/>
        </g>
        <g style="fill:rgb(0,0,0); fill-opacity:1.0; stroke-linejoin: miter">
          <path d="M223.5024,417.92587L223.34349,438.5259L240.42168,438.67172L244.37517,438.6799L244.54918,418.1055L223.5331,417.92618"/>
        </g>
        <g style="fill:rgb(0,0,0); fill-opacity:1.0; stroke-linejoin: miter">
          <path d="M260.46442,419.47733L260.30554,440.07736L277.38364,440.22318L281.3371,440.23135L281.51114,419.657L260.49512,419.47763"/>
        </g>
        <g style="fill:rgb(0,0,0); fill-opacity:1.0; stroke-linejoin: miter">
          <path d="M298.62497,420.26602L298.46606,440.86606L315.54422,441.0118L319.49768,441.02L319.6717,420.44562L298.65567,420.26627"/>
        </g>
        <g style="fill:rgb(0,0,0); fill-opacity:1.0; stroke-linejoin: miter">
          <path d="M183.79828,474.1801L183.6394,494.78018L200.71756,494.92593L204.67102,494.9341L204.84503,474.3597L183.82898,474.1804"/>
        </g>
        <g style="fill:rgb(0,0,0); fill-opacity:1.0; stroke-linejoin: miter">
          <path d="M221.95888,474.96878L221.79997,495.56885L238.87817,495.71463L242.83163,495.72278L243.00565,475.14838L221.98958,474.96906"/>
        </g>
        <g style="fill:rgb(0,0,0); fill-opacity:1.0; stroke-linejoin: miter">
          <path d="M220.65558,526.52875L220.4967,547.12885L237.57489,547.27466L241.52838,547.28284L241.70236,526.7084L220.68628,526.52905"/>
        </g>
        <g style="fill:rgb(0,0,0); fill-opacity:1.0; stroke-linejoin: miter">
          <path d="M182.49501,525.7401L182.33614,546.3402L199.41428,546.486L203.36774,546.49414L203.54175,525.91974L182.52571,525.74036"/>
        </g>
        <g style="fill:rgb(0,0,0); fill-opacity:1.0; stroke-linejoin: miter">
          <path d="M180.97673,580.5023L180.81784,601.10236L197.89597,601.24817L201.84946,601.25635L202.02348,580.68195L181.00743,580.50256"/>
        </g>
        <g style="fill:rgb(0,0,0); fill-opacity:1.0; stroke-linejoin: miter">
          <path d="M179.43321,637.54517L179.27434,658.14526L196.35248,658.291L200.30594,658.2992L200.47995,637.7248L179.46391,637.5454"/>
        </g>
        <g style="fill:rgb(0,0,0); fill-opacity:1.0; stroke-linejoin: miter">
          <path d="M178.12994,689.1052L177.97107,709.7053L195.0492,709.8511L199.00266,709.85925L199.17667,689.2848L178.16064,689.10547"/>
        </g>
        <g style="fill:rgb(0,0,0); fill-opacity:1.0; stroke-linejoin: miter">
          <path d="M219.1373,581.29095L218.9784,601.891L236.05658,602.03687L240.01006,602.04504L240.18407,581.4706L219.168,581.29126"/>
        </g>
        <g style="fill:rgb(0,0,0); fill-opacity:1.0; stroke-linejoin: miter">
          <path d="M217.59378,638.33386L217.43488,658.93396L234.51308,659.0797L238.46654,659.0879L238.64055,638.5135L217.62448,638.3341"/>
        </g>
        <g style="fill:rgb(0,0,0); fill-opacity:1.0; stroke-linejoin: miter">
          <path d="M216.29048,689.8938L216.1316,710.4939L233.2098,710.6398L237.16328,710.64795L237.33727,690.0735L216.32118,689.89417"/>
        </g>
        <g style="fill:rgb(0,0,0); fill-opacity:1.0; stroke-linejoin: miter">
          <path d="M293.3488,526.7459L293.1899,547.34595L310.26797,547.49164L314.22147,547.4998L314.39548,526.9254L293.3795,526.74615"/>
        </g>
        <g style="fill:rgb(0,0,0); fill-opacity:1.0; stroke-linejoin: miter">
          <path d="M331.50928,527.5345L331.3504,548.1346L348.42853,548.28033L352.38202,548.2885L352.556,527.7141L331.53998,527.5348"/>
        </g>
        <g style="fill:rgb(0,0,0); fill-opacity:1.0; stroke-linejoin: miter">
          <path d="M368.47125,529.08594L368.3124,549.68604L385.3905,549.8318L389.34396,549.83997L389.51797,529.26556L368.50195,529.08624"/>
        </g>
        <g style="fill:rgb(0,0,0); fill-opacity:1.0; stroke-linejoin: miter">
          <path d="M406.6317,529.8746L406.47284,550.4746L423.551,550.6204L427.50446,550.62854L427.67844,530.05414L406.6624,529.8748"/>
        </g>
        <g style="fill:rgb(0,0,0); fill-opacity:1.0; stroke-linejoin: miter">
          <path d="M405.3285,581.43463L405.16962,602.0347L422.2478,602.18054L426.20123,602.18866L426.3752,581.6143L405.3592,581.4349"/>
        </g>
        <g style="fill:rgb(0,0,0); fill-opacity:1.0; stroke-linejoin: miter">
          <path d="M367.168,580.646L367.00916,601.24603L384.08725,601.3919L388.0407,601.4001L388.21472,580.8257L367.1987,580.6463"/>
        </g>
        <g style="fill:rgb(0,0,0); fill-opacity:1.0; stroke-linejoin: miter">
          <path d="M330.20602,579.09454L330.04712,599.6946L347.12527,599.8404L351.07877,599.8486L351.25278,579.2742L330.23672,579.09485"/>
        </g>
        <g style="fill:rgb(0,0,0); fill-opacity:1.0; stroke-linejoin: miter">
          <path d="M292.0455,578.30597L291.88663,598.906L308.96472,599.0517L312.91818,599.0599L313.09222,578.4855L292.0762,578.3062"/>
        </g>
        <g style="fill:rgb(0,0,0); fill-opacity:1.0; stroke-linejoin: miter">
          <path d="M292.35168,634.5102L292.1928,655.1102L309.27084,655.25586L313.22433,655.26404L313.39835,634.68964L292.3824,634.51044"/>
        </g>
        <g style="fill:rgb(0,0,0); fill-opacity:1.0; stroke-linejoin: miter">
          <path d="M330.51215,635.2987L330.35327,655.8988L347.43143,656.0446L351.38492,656.0528L351.5589,635.4784L330.54285,635.299"/>
        </g>
        <g style="fill:rgb(0,0,0); fill-opacity:1.0; stroke-linejoin: miter">
          <path d="M367.47415,636.8502L367.3153,657.4503L384.39337,657.59595L388.34683,657.6041L388.52084,637.0298L367.50485,636.8505"/>
        </g>
        <g style="fill:rgb(0,0,0); fill-opacity:1.0; stroke-linejoin: miter">
          <path d="M405.63458,637.63885L405.4757,658.23883L422.55386,658.38464L426.50732,658.39276L426.6813,637.8184L405.66528,637.6391"/>
        </g>
        <g style="fill:rgb(0,0,0); fill-opacity:1.0; stroke-linejoin: miter">
          <path d="M404.33136,689.19885L404.1725,709.79895L421.25067,709.94476L425.2041,709.9529L425.37808,689.37854L404.36206,689.1991"/>
        </g>
        <g style="fill:rgb(0,0,0); fill-opacity:1.0; stroke-linejoin: miter">
          <path d="M366.1709,688.4103L366.01205,709.0103L383.09012,709.15607L387.04358,709.16425L387.2176,688.58984L366.2016,688.4106"/>
        </g>
        <g style="fill:rgb(0,0,0); fill-opacity:1.0; stroke-linejoin: miter">
          <path d="M329.2089,686.85876L329.05,707.4588L346.12817,707.6047L350.08167,707.61285L350.25568,687.03845L329.2396,686.8591"/>
        </g>
        <g style="fill:rgb(0,0,0); fill-opacity:1.0; stroke-linejoin: miter">
          <path d="M291.0484,686.07025L290.88953,706.6703L307.9676,706.8159L311.92105,706.8241L312.0951,686.2497L291.0791,686.0705"/>
        </g>
        <g style="fill:rgb(0,0,0); fill-opacity:1.0; stroke-linejoin: miter">
          <path d="M382.42084,101.562164L382.26196,122.16223L399.3401,122.30798L403.29358,122.31616L403.4676,101.74176L382.45154,101.56244"/>
        </g>
        <g style="fill:rgb(0,0,0); fill-opacity:1.0; stroke-linejoin: miter">
          <path d="M381.11755,153.12224L380.95868,173.72227L398.0368,173.86806L401.9903,173.87624L402.1643,153.30183L381.14825,153.12248"/>
        </g>
        <g style="fill:rgb(0,0,0); fill-opacity:1.0; stroke-linejoin: miter">
          <path d="M379.574,210.16512L379.4151,230.76515L396.49326,230.9109L400.44675,230.91908L400.6208,210.34471L379.6047,210.16539"/>
        </g>
        <g style="fill:rgb(0,0,0); fill-opacity:1.0; stroke-linejoin: miter">
          <path d="M378.27075,261.72513L378.11182,282.32526L395.19,282.47107L399.1435,282.4792L399.31747,261.9047L378.30145,261.72537"/>
        </g>
        <g style="fill:rgb(0,0,0); fill-opacity:1.0; stroke-linejoin: miter">
          <path d="M376.75247,316.48734L376.59357,337.08737L393.6717,337.2332L397.62518,337.24136L397.79926,316.66696L376.78317,316.48758"/>
        </g>
        <g style="fill:rgb(0,0,0); fill-opacity:1.0; stroke-linejoin: miter">
          <path d="M375.2089,373.53012L375.05005,394.13028L392.1282,394.27603L396.0817,394.2842L396.25568,373.70975L375.2396,373.53036"/>
        </g>
        <g style="fill:rgb(0,0,0); fill-opacity:1.0; stroke-linejoin: miter">
          <path d="M373.90564,425.09015L373.74683,445.69025L390.82492,445.836L394.77838,445.84418L394.95236,425.2697L373.93634,425.0904"/>
        </g>
        <g style="fill:rgb(0,0,0); fill-opacity:1.0; stroke-linejoin: miter">
          <path d="M307.93585,101.160934L307.77695,121.761L324.8551,121.90675L328.8086,121.91493L328.9826,101.34053L307.96655,101.16121"/>
        </g>
        <g style="fill:rgb(0,0,0); fill-opacity:1.0; stroke-linejoin: miter">
          <path d="M306.63254,152.721L306.47363,173.32103L323.55182,173.46681L327.5053,173.47499L327.67932,152.90059L306.66324,152.72124"/>
        </g>
        <g style="fill:rgb(0,0,0); fill-opacity:1.0; stroke-linejoin: miter">
          <path d="M305.08902,209.76387L304.93015,230.36394L322.00833,230.50969L325.9618,230.51787L326.1358,209.94347L305.11972,209.76414"/>
        </g>
        <g style="fill:rgb(0,0,0); fill-opacity:1.0; stroke-linejoin: miter">
          <path d="M303.78574,261.32385L303.62686,281.92395L320.70502,282.06976L324.6585,282.07788L324.83252,261.50348L303.81644,261.3241"/>
        </g>
        <g style="fill:rgb(0,0,0); fill-opacity:1.0; stroke-linejoin: miter">
          <path d="M346.0965,101.94957L345.9376,122.54964L363.01578,122.69539L366.96927,122.70357L367.14328,102.129166L346.1272,101.949844"/>
        </g>
        <g style="fill:rgb(0,0,0); fill-opacity:1.0; stroke-linejoin: miter">
          <path d="M344.79318,153.5096L344.63428,174.10963L361.7125,174.25545L365.66602,174.26363L365.84003,153.68922L344.82388,153.5099"/>
        </g>
        <g style="fill:rgb(0,0,0); fill-opacity:1.0; stroke-linejoin: miter">
          <path d="M343.24966,210.55254L343.09076,231.1526L360.169,231.29839L364.12247,231.30653L364.29648,210.73213L343.28036,210.55281"/>
        </g>
        <g style="fill:rgb(0,0,0); fill-opacity:1.0; stroke-linejoin: miter">
          <path d="M341.94638,262.1125L341.7875,282.7126L358.86572,282.8584L362.8192,282.86658L362.9932,262.2921L341.97708,262.1128"/>
        </g>
        <g style="fill:rgb(0,0,0); fill-opacity:1.0; stroke-linejoin: miter">
          <path d="M-39.4377,783.1838L-38.62783,811.2099L828.89453,819.37286L829.3216,791.3902L-39.11165,783.1868"/>
        </g>
        <g style="fill:rgb(0,0,0); fill-opacity:1.0; stroke-linejoin: miter">
          <path d="M346.60193,738.41724L346.51944,793.3095L374.20404,793.397L387.57358,793.35266L387.64218,738.4788L346.66626,738.41736"/>
        </g>
        <g style="fill:rgb(0,0,0); fill-opacity:1.0; stroke-linejoin: miter">
          <path d="M172.72255,730.41724L172.65306,796.36285L200.27747,796.40436L208.68489,796.417L208.77977,730.4714L172.74794,730.4173"/>
        </g>
        <g style="fill:rgb(0,0,0); fill-opacity:1.0; stroke-linejoin: miter">
          <path d="M435.86194,102.002205L435.86194,126.024536L436.03586,126.02454L524.9016,126.02454L524.9016,102.00221L435.86197,102.002205"/>
        </g>
        <g style="fill:rgb(0,0,0); fill-opacity:1.0; stroke-linejoin: miter">
          <path d="M435.86194,102.002205L435.86194,126.024536L436.03586,126.02454L524.9016,126.02454L524.9016,102.00221L435.86197,102.002205"/>
        </g>
        <g style="fill:rgb(0,0,0); fill-opacity:1.0; stroke-linejoin: miter">
          <path d="M524.2345,169.74065L524.2014,145.90387L524.02893,145.9041L435.85117,146.02673L435.88403,169.86311L524.2345,169.74065"/>
        </g>
        <g style="fill:rgb(0,0,0); fill-opacity:1.0; stroke-linejoin: miter">
          <path d="M436.17712,208.77332L436.17712,232.79562L436.35104,232.79564L525.2168,232.79564L525.2168,208.77332L436.17715,208.77332"/>
        </g>
        <g style="fill:rgb(0,0,0); fill-opacity:1.0; stroke-linejoin: miter">
          <path d="M524.5497,276.51175L524.5166,252.67499L524.3442,252.6752L436.16635,252.79782L436.19922,276.6342L524.5497,276.51175"/>
        </g>
        <g style="fill:rgb(0,0,0); fill-opacity:1.0; stroke-linejoin: miter">
          <path d="M435.38937,320.83307L435.38937,344.85535L435.5633,344.85538L524.4291,344.85538L524.4291,320.83307L435.3894,320.83307"/>
        </g>
        <g style="fill:rgb(0,0,0); fill-opacity:1.0; stroke-linejoin: miter">
          <path d="M523.76196,388.57147L523.7289,364.7347L523.55646,364.73492L435.3786,364.85754L435.41147,388.6939L523.76196,388.57147"/>
        </g>
        <g style="fill:rgb(0,0,0); fill-opacity:1.0; stroke-linejoin: miter">
          <path d="M436.25528,424.5442L436.25528,448.56647L436.4292,448.5665L525.29486,448.56647L525.29486,424.54416L436.2553,424.5442"/>
        </g>
        <g style="fill:rgb(0,0,0); fill-opacity:1.0; stroke-linejoin: miter">
          <path d="M524.59467,468.4458L524.4223,468.446L436.2445,468.56866L436.25095,473.23367L436.2628,481.83365L450.36163,481.83365L450.36163,492.3855L458.88412,492.3737L524.62775,492.28253L524.59467,468.4458 Z"/>
        </g>
        <g style="fill:rgb(0,0,0); fill-opacity:1.0; stroke-linejoin: miter">
          <path d="M99.386566,569.802Q95.425964,570.06866,94.953125,573.9567L89.42099,806.4588L89.35895,809.0665L89.37586,809.1913L97.94796,809.42804L103.548065,573.9451Q103.105156,570.23724,99.39151,569.8022"/>
        </g>
        <g style="fill:rgb(0,0,0); fill-opacity:1.0; stroke-linejoin: miter">
          <path d="M100.896545,589.9086Q100.46103,589.79736,100.03536,589.7925L67.94254,589.43256Q67.56556,589.4297,67.20074,589.50226Q64.54541,590.2001,64.27986,592.9539Q64.3639,595.71625,66.99386,596.5861Q67.427605,596.6973,67.85293,596.7029L99.945694,597.063Q100.32355,597.0664,100.68943,596.994Q103.348045,596.29675,103.61369,593.5427Q103.529816,590.78046,100.90251,589.9102"/>
        </g>
        <g style="fill:rgb(0,0,0); fill-opacity:1.0; stroke-linejoin: miter">
          <path d="M68.466125,589.3615Q66.85942,588.9754,65.489,589.8846Q64.131134,590.86096,63.933567,592.4988L63.564854,607.64404Q63.556515,607.888,63.5934,608.1974Q63.992245,610.5309,66.28449,611.25006Q67.89123,611.6354,69.26163,610.725Q70.61959,609.74774,70.81562,608.10645L71.18388,592.9609Q71.19181,592.717,71.15446,592.4079Q70.74622,590.0768,68.477135,589.3644"/>
        </g>
        <g style="fill:rgb(0,0,0); fill-opacity:1.0; stroke-linejoin: miter">
          <path d="M60.348957,606.8822L46.107365,625.88416L46.166916,625.8945L88.97606,627.32306L73.39462,607.87866L60.408314,606.8867"/>
        </g>
        <g style="fill:rgb(0,0,0); fill-opacity:1.0; stroke-linejoin: miter">
          <path d="M631.74615,679.12573L615.1316,681.3894L610.81244,739.9645L614.546,782.12024L612.4317,800.313L629.35175,802.7641L640.9382,800.2953L627.81067,754.31946L631.74316,679.18335"/>
        </g>
        <g style="fill:rgb(0,0,0); fill-opacity:1.0; stroke-linejoin: miter">
          <path d="M660.5742,529.3869L597.118,541.0563L539.61914,605.24243L559.7419,677.1168L567.22687,689.1504L575.2502,699.0558L618.3331,712.7914L572.1424,651.8339L617.1211,698.93097L592.78375,638.9263L623.562,690.9031L631.10455,642.02844L632.3007,662.5591L622.7353,703.17834L669.53894,680.252L620.525,720.9932L687.5069,678.3219L690.19666,658.02216L688.0791,618.06195L677.8723,571.9472L660.57495,529.3888"/>
        </g>
      </g>
    </g>
  </g>
</svg>