<?xml version="1.0" encoding="utf-8"?>
<svg xmlns="http://www.w3.org/2000/svg" viewBox="0 0 500 500">
  <g transform="matrix(0.452266, 0, 0, 0.452266, 115.714789, 175.155896)">
    <g id="layer1" transform="translate(257.98923,344.57632)">
      <g id="g4762" transform="matrix(1.1199683,0,-0.08704809,1.1199683,-4730.4286,-1805.7004)">
        <path style="fill:#ffffff;fill-opacity:1;stroke:none;stroke-width:0.755594;stroke-linecap:round;stroke-linejoin:round;-inkscape-stroke:none;paint-order:fill markers stroke;stop-color:#000000" d="m 4115.8177,1538.9816 c 0,0 1.9271,-11.962 7.4673,-12.9413 5.5403,-0.9794 3.2519,-12.6616 9.6352,-14.3405 6.3834,-1.6789 7.9491,-6.086 12.7667,-13.1512 4.8176,-7.0653 11.2009,-8.2545 11.2009,-8.2545 0,0 -0.3613,-9.4437 5.7812,-11.8221 6.1424,-2.3784 12.044,-3.1479 12.044,-3.1479 0,0 -2.4088,-9.8634 3.1314,-12.2419 5.5403,-2.3784 7.7082,-0.3497 7.7082,-0.3497 0,0 -1.084,-11.6822 1.8066,-13.0813 2.8906,-1.3991 9.6352,-1.539 9.6352,-1.539 0,0 -3.3723,-8.6742 3.2519,-12.1719 6.6242,-3.4976 10.96,-3.2878 10.96,-3.2878 0,0 -0.2408,-7.485 3.9746,-10.7728 4.2154,-3.2878 9.876,-3.9174 9.876,-3.9174 0,0 -3.6132,-6.2258 2.8906,-9.4437 6.5038,-3.2178 10.3579,-3.1479 10.3579,-3.1479 0,0 -3.4928,-10.423 1.0839,-12.6615 4.5768,-2.2385 10.4783,-3.7075 10.4783,-3.7075 0,0 4.6972,-7.7649 8.7922,-10.0034 4.0949,-2.2385 8.5512,-3.0779 8.5512,-3.0779 0,0 -1.927,-8.0447 3.011,-10.4231 4.9381,-2.3784 8.3104,-4.407 8.3104,-4.407 0,0 -0.9635,-8.8841 3.011,-11.3325 3.9745,-2.4483 8.3104,-5.8061 8.3104,-5.8061 0,0 12.1644,-19.0973 17.4638,-21.1259 5.2993,-2.0287 8.5512,-3.3578 8.5512,-3.3578 0,0 -3.854,-10.3531 5.6607,-11.6122 9.5148,-1.2592 19.2705,7.8347 19.2705,7.8347 0,0 6.3833,2.5184 10.8396,5.1066 4.4562,2.5883 8.3103,2.4484 15.055,7.2752 6.7446,4.8268 9.2739,10.5629 9.2739,10.5629 0,0 8.6717,1.8888 13.2484,6.2259 4.5767,4.3371 30.4714,21.8254 35.4094,24.4137 4.938,2.5883 18.1865,17.2785 25.2925,19.8667 7.1059,2.5883 23.9675,19.8668 28.7851,21.3358 4.8176,1.469 17.9456,11.6822 23.245,13.571 5.2994,1.8887 7.949,10.3531 13.971,13.2911 6.0221,2.9381 25.4129,19.0273 29.267,22.1752 3.8541,3.1479 15.8981,17.0686 19.7522,17.8381 3.854,0.7695 11.5622,5.8761 12.6462,8.8141 1.0839,2.9381 3.9745,7.555 -2.6497,11.0527 -6.6242,3.4976 -178.9741,114.7934 -178.9741,114.7934 l -114.2977,-24.5536 c 0,0 -158.4992,-38.5443 -162.8351,-40.0133 -4.3358,-1.4691 -3.011,-8.4644 -3.011,-8.4644 z" id="path4758"/>
        <path style="fill:#000000;stroke-width:1.62494" d="m 4381.3671,1612.417 c -77.2216,-15.7443 -163.4799,-36.6516 -229.8575,-52.8975 -19.2887,-4.7196 -31.131,-8.7454 -35.3426,-11.2194 -4.0091,-2.3551 -4.2483,-15.0146 -0.068,-19.2049 2.6092,-2.6155 5.9029,-4.7498 7.3122,-4.7498 1.7328,0 2.5624,-1.4968 2.5624,-4.623 0,-5.36 4.3955,-10.0015 9.4714,-10.0015 2.2746,0 3.5304,-1.0104 3.5343,-2.8437 0.012,-4.781 6.1603,-13.2602 10.3875,-14.3212 3.1186,-0.7827 4.2314,-2.4032 5.0735,-7.3881 1.3789,-8.1608 4.4856,-11.1959 11.4605,-11.1959 5.0831,0 5.5713,-0.419 5.5713,-4.7827 0,-5.0562 4.8689,-9.8418 10.0132,-9.8418 2.0513,0 2.9238,-1.6137 3.2945,-6.0935 0.4635,-5.6001 0.965,-6.1594 6.1917,-6.906 4.9429,-0.7061 5.7361,-1.4501 6.0596,-5.6844 0.4207,-5.5058 4.0056,-10.3725 9.5511,-10.3725 2.9443,0 3.7518,-0.8973 3.7518,-4.1692 0,-6.2492 2.892,-10.4553 7.1886,-10.4553 3.0816,0 4.0309,-1.1006 4.8876,-5.6675 1.1719,-6.247 5.7452,-9.7086 10.7344,-8.125 2.7372,0.8687 3.1885,0.2374 3.1885,-4.4599 0,-6.6106 2.4375,-9.3716 8.2736,-9.3716 3.2971,0 4.6219,-0.989 5.382,-4.0175 1.3462,-5.3638 7.1977,-10.607 11.8375,-10.607 2.8252,0 3.7559,-0.9171 3.7559,-3.7009 0,-4.613 4.2776,-10.9236 7.4044,-10.9236 1.3828,0 2.3453,-1.5775 2.3453,-3.8432 0,-5.3498 5.9592,-12.4064 10.477,-12.4064 2.867,0 3.9719,-1.1529 4.7281,-4.9338 0.6363,-3.1814 2.7249,-5.9229 5.8801,-7.7184 2.6914,-1.5316 5.684,-2.7683 5.6898,-4.2817 0.012,-3.2186 5.9624,-7.8105 10.1215,-7.8105 1.7485,0 2.8882,-1.2114 2.8882,-3.07 0,-6.0567 4.3057,-10.1176 11.6819,-10.1176 5.5892,0 7.6579,0.9159 11.3157,5.0096 2.4619,2.7553 4.9356,4.8139 7.5211,5.4595 8.4883,2.119 13.7304,7.5843 8.1847,9.7124 -1.2708,0.4876 -3.7256,0.1292 -5.4553,-0.7965 -2.1396,-1.1451 -5.0407,-1.1597 -9.0753,-0.045 -5.3826,1.4862 -5.8331,2.0427 -4.8781,6.0265 0.5787,2.4142 1.3111,4.6902 1.6278,5.0581 0.7008,0.8143 16.6433,-7.5871 20.2193,-10.655 4.5878,-3.9361 9.1283,-2.5394 14.5326,3.6158 2.7737,3.1591 5.0432,6.4497 5.0432,7.3123 0,0.8626 2.1937,1.5683 4.8748,1.5683 4.3497,0 9.9013,3.6037 11.5778,7.5154 0.3351,0.7821 4.6011,3.25 9.4799,5.4842 12.5906,5.766 26.9008,16.7054 29.4826,22.538 1.7286,3.9052 4.7962,6.1028 14.3088,10.2503 14.1607,6.1742 30.2678,17.5215 31.822,22.4181 0.7288,2.2963 2.0033,3.1369 3.8619,2.547 4.4224,-1.4036 17.1908,5.8351 17.7948,10.0881 0.2856,2.0109 1.5537,3.6562 2.818,3.6562 1.2643,0 4.5976,2.054 7.4073,4.5644 3.9423,3.5224 6.2711,5.3043 5.3991,8.0517 -1.2944,4.0784 -4.5052,4.6239 -7.3118,1.2423 -1.5019,-1.8097 -2.989,-1.9467 -6.7816,-0.6246 -5.9686,2.0807 -7.7315,0.6993 -4.1534,-3.2546 2.5055,-2.7684 2.4722,-3.1963 -0.4966,-6.3828 -5.9116,-6.3453 -8.8061,-6.0022 -23.7308,2.8131 -7.723,4.5616 -14.763,8.0536 -15.6443,7.7598 -0.8814,-0.2939 4.6831,-4.8479 12.3655,-10.1201 7.6825,-5.2722 13.9681,-9.8563 13.9681,-10.1868 0,-0.3305 -2.628,-1.699 -5.8401,-3.0412 -5.7574,-2.4055 -6.046,-2.3337 -20.3812,5.0701 -18.8283,9.7245 -22.4789,8.525 -4.9972,-1.642 7.4073,-4.3077 13.7853,-8.3463 14.1736,-8.9744 0.3882,-0.6281 -1.9494,-3.0313 -5.1947,-5.3404 -5.4787,-3.898 -6.225,-4.0305 -10.4367,-1.8526 -4.839,2.5024 -11.2041,3.1436 -11.187,1.1271 0,-0.6703 2.3688,-2.5617 5.2515,-4.2031 l 5.2413,-2.9842 -5.6254,-4.5913 c -4.1704,-3.4037 -6.3418,-4.2079 -8.3947,-3.1093 -4.2832,2.2924 -5.0423,1.8098 -3.9568,-2.5153 1.3233,-5.2723 -4.0483,-8.5721 -9.7357,-5.9808 -4.3567,1.9851 -7.5149,-0.7468 -3.7168,-3.215 1.7842,-1.1594 1.4136,-2.1061 -1.8229,-4.6571 -4.9854,-3.9292 -7.0845,-4.0305 -12.3278,-0.5951 -5.5994,3.6689 -9.1311,0.5548 -4.7993,-4.232 2.8581,-3.1581 2.8305,-3.3504 -0.9321,-6.484 -5.2585,-4.3795 -7.1073,-4.1502 -19.2392,2.3866 -11.123,5.9933 -13.0749,6.6004 -13.0749,4.0668 0,-0.8708 4.8079,-4.3442 10.6843,-7.7184 l 10.6844,-6.135 -5.2907,-4.4259 c -5.6243,-4.7048 -9.0685,-4.7341 -18.157,-0.1545 -5.3838,2.713 -8.7967,1.3954 -5.7852,-2.2333 1.1238,-1.3541 3.7187,-3.099 5.7662,-3.8774 4.4939,-1.7086 4.5582,-2.8012 0.4552,-7.7247 l -3.1595,-3.7913 -8.5673,4.0036 c -4.7119,2.2019 -10.1289,4.4791 -12.0377,5.0606 -3.1692,0.9652 -3.3288,1.6155 -1.838,7.4887 1.4443,5.6902 2.0786,6.3198 5.5017,5.4606 2.8974,-0.7272 3.8692,-0.3019 3.8692,1.6935 0,1.4655 -1.0969,3.0854 -2.4374,3.5998 -2.5075,0.9623 -3.079,7.3327 -1.1042,12.309 0.7984,2.0116 1.7811,2.3567 3.5419,1.2435 3.2697,-2.0668 8.1244,-2.001 8.1244,0.1097 0,0.9354 -2.189,2.9462 -4.8646,4.4687 -4.9212,2.8003 -5.982,5.8333 -3.442,9.8419 1.0713,1.6905 2.17,1.7833 4.7514,0.4018 5.0811,-2.7193 6.0342,0.827 1.0926,4.0649 -3.5268,2.3108 -4.0231,3.5457 -3.1305,7.7898 1.3797,6.561 3.4138,8.6855 5.918,6.1813 2.6979,-2.6978 4.55,-2.4375 4.55,0.6396 0,1.4243 -1.5017,2.9822 -3.3371,3.4622 -4.9277,1.2886 -3.8509,10.7971 1.3059,11.5294 4.1738,0.5928 4.7516,3.1558 1.3076,5.8014 -1.9287,1.4816 -2.0289,3.1668 -0.5606,9.4271 l 1.788,7.623 6.2799,-3.2037 c 5.5713,-2.8423 6.3906,-2.9153 7.261,-0.6469 0.5397,1.4063 0.7081,2.7081 0.3742,2.893 -10.298,5.7033 -10.3627,5.7849 -10.0301,12.6572 0.1796,3.7105 1.4375,7.9739 2.7953,9.4743 1.7412,1.924 2.1765,4.5293 1.477,8.8395 -0.8613,5.308 -0.5344,6.2313 2.4858,7.0211 4.062,1.0623 4.3948,2.6211 1.1367,5.3251 -1.2875,1.0684 -2.0797,2.8032 -1.7607,3.855 0.3191,1.0518 0.9989,3.8359 1.5106,6.1867 0.562,2.5815 2.3494,4.6456 4.5131,5.2114 3.3685,0.881 3.4211,1.1153 0.8786,3.9248 -1.9652,2.1715 -2.4378,4.6288 -1.7297,8.9926 0.9651,5.9475 1.0343,5.995 7.264,4.9988 5.2045,-0.8322 6.2895,-0.5351 6.2895,1.7223 0,1.5839 -2.395,3.7286 -5.7104,5.1139 -6.1697,2.5779 -6.3587,4.4372 -1.6406,16.1351 1.0813,2.6812 2.9462,9.8106 4.1441,15.8433 1.198,6.0326 2.5924,10.9521 3.0987,10.9323 0.5063,-0.02 2.7486,-1.4661 4.983,-3.2138 2.2343,-1.7477 5.342,-3.1938 6.906,-3.2138 5.3655,-0.068 2.8413,4.8821 -4.2448,8.3249 l -7.0885,3.4438 2.219,7.3734 c 1.2206,4.0554 2.4643,7.6185 2.7639,7.9182 0.2997,0.2997 3.5371,-1.094 7.1941,-3.0972 3.6571,-2.0032 7.1829,-3.1083 7.8353,-2.4561 1.6839,1.6839 -3.5826,7.0516 -9.2027,9.3796 -4.1035,1.6996 -4.7574,2.8368 -4.7574,8.2732 0,4.4043 0.7053,6.3025 2.3415,6.3025 1.2878,0 2.782,-0.7125 3.3203,-1.5836 2.8468,-4.6062 161.744,-107.1858 172.101,-111.1036 1.0741,-0.4063 0.3736,-2.1567 -1.7464,-4.3638 -3.2177,-3.3494 -3.9998,-3.4949 -8.5832,-1.5964 -6.0444,2.5037 -8.0933,1.1601 -4.4202,-2.8984 2.4403,-2.6967 2.4463,-3.1637 0.071,-5.5387 -2.3751,-2.3752 -2.2327,-2.5851 0.6137,-4.3105 4.6811,-2.8376 22.9111,8.4229 22.9111,16.6963 0,2.2783 -2.5531,3.7786 -5.0109,6.464 -4.4548,4.8675 -26.4156,19.9081 -36.5206,25.0122 -9.1225,4.608 -58.0677,34.7369 -81.1627,51.819 -45.0513,33.3217 -59.4538,41.0209 -65.6443,40.7837 -5.8789,-0.8239 -8.7339,-0.6786 -13.6572,-1.8838 z m 8.2887,-10.1774 c -1.9922,-5.7545 -2.4845,-6.0425 -16.5707,-9.6936 -7.9845,-2.0697 -19.6358,-5.5974 -25.8919,-7.8393 -6.256,-2.2421 -13.068,-4.0954 -15.1376,-4.1184 -5.1199,-0.057 -10.0491,-2.8954 -10.0491,-5.7865 0,-3.14 2.5546,-3.0035 13.3585,0.7136 4.9457,1.7017 14.0178,3.8929 20.16,4.8697 6.1422,0.9767 15.1552,2.8481 20.0292,4.1586 4.8739,1.3105 9.1256,2.1187 9.4482,1.7961 0.7934,-0.7933 -1.2225,-11.2478 -2.5979,-13.4734 -0.6057,-0.98 -8.7761,-3.2018 -18.1562,-4.9375 -9.3803,-1.7357 -26.9267,-5.7381 -38.9919,-8.8945 -12.0652,-3.1562 -26.1818,-6.6154 -31.3701,-7.687 -5.8281,-1.2037 -9.1872,-2.6724 -8.7895,-3.8429 1.1966,-3.5219 14.7892,-1.7326 39.3471,5.1795 21.2779,5.9887 54.0349,12.5554 55.4704,11.1198 0.2721,-0.2721 -0.4112,-4.1114 -1.5184,-8.5318 -1.5119,-6.036 -2.6951,-7.9226 -4.7515,-7.5769 -1.5062,0.253 -8.6705,-1.0546 -15.921,-2.9058 -7.2505,-1.8511 -19.5325,-4.7767 -27.2933,-6.5012 -7.761,-1.7245 -23.2512,-5.3379 -34.4227,-8.03 -11.1716,-2.692 -26.5273,-5.9722 -34.1239,-7.2893 -7.5966,-1.3172 -24.0491,-4.7074 -36.5613,-7.5337 -12.5121,-2.8264 -28.2334,-6.1517 -34.9363,-7.3895 -6.7029,-1.238 -14.3071,-2.9811 -16.8982,-3.8737 -2.5911,-0.8927 -6.43,-1.6229 -8.5309,-1.6229 -2.1009,0 -3.8199,-0.7754 -3.8199,-1.7232 0,-0.9974 -2.5662,-1.5106 -6.0936,-1.2187 -5.8366,0.4831 -6.1324,0.7956 -7.0152,7.4104 -0.9103,6.8198 -0.8595,6.9064 4.0623,6.9344 12.3867,0.071 68.2261,11.1048 86.6788,17.1283 6.685,2.1822 13.4145,3.9676 14.9546,3.9676 8.438,0 16.2177,5.9657 11.5454,8.8533 -1.9117,1.1815 -14.7398,-1.4991 -34.2596,-7.1591 -8.4904,-2.4617 -29.6959,-7.1654 -47.1235,-10.4523 -17.4275,-3.287 -35.0751,-7.0484 -39.2168,-8.3588 -10.4145,-3.2949 -11.1566,-3.1008 -11.1566,2.9189 0,5.1675 0.2772,5.3766 10.9684,8.2797 6.0326,1.6379 11.8824,3.2511 12.9996,3.5847 1.1172,0.3337 2.0313,1.4135 2.0313,2.3995 0,1.9565 -11.4587,0.9485 -28.0341,-2.466 -5.141,-1.0591 -9.7112,-1.5616 -10.156,-1.1169 -0.4447,0.4449 -0.8086,3.562 -0.8086,6.9269 v 6.1181 l 12.5933,2.6959 c 6.9262,1.4827 33.0676,7.8251 58.0918,14.0941 25.0241,6.2692 55.37,13.4625 67.4352,15.9853 12.0652,2.5229 32.9051,6.8788 46.3109,9.6799 33.4696,6.9934 76.8273,17.5142 80.138,19.4455 5.5483,3.2366 6.769,2.1055 4.5733,-4.2369 z m -92.8359,-33.3888 c -5.3623,-0.8107 -14.8683,-2.5507 -21.1244,-3.8664 -6.256,-1.3158 -20.8805,-4.2268 -32.4988,-6.4688 -31.1113,-6.0036 -57.9941,-11.86 -58.9837,-12.8496 -3.0013,-3.0014 5.5054,-2.345 39.0702,3.0145 20.7833,3.3186 48.7562,8.9897 62.162,12.6024 33.0405,8.9042 36.8126,11.4137 11.3747,7.5679 z m -128.1,-26.7615 c -2.1783,-2.1784 -1.0019,-5.4165 1.9676,-5.4165 3.3907,0 7.2706,3.7614 5.6014,5.4306 -1.3872,1.3872 -6.1766,1.3782 -7.569,-0.015 z m 204.3907,-5.8228 c -2.3336,-10.6942 -2.9629,-11.3151 -14.6652,-14.4681 -19.6432,-5.2927 -63.7771,-13.9866 -97.3744,-19.1817 -48.2035,-7.4536 -78.6153,-13.1952 -87.747,-16.5663 -4.4687,-1.6495 -8.6601,-2.9996 -9.3143,-3 -0.6542,-4e-4 -1.1086,3.5826 -1.01,7.9624 l 0.1795,7.9633 18.072,2.6554 c 9.9395,1.4605 22.8249,3.6883 28.634,4.9508 5.8092,1.2624 20.4338,3.8329 32.499,5.7122 12.0652,1.8792 25.9585,4.1737 30.8739,5.0987 23.8007,4.4789 39.2133,7.8457 41.0161,8.96 1.0935,0.6757 8.9476,2.8636 17.4535,4.8618 8.506,1.9982 20.9496,5.0645 27.6525,6.814 6.7029,1.7495 12.7937,3.2568 13.535,3.3497 0.7413,0.093 0.8292,-2.2075 0.1954,-5.1122 z m -3.9807,-22.2372 c 0,-1.7292 -0.6491,-4.8369 -1.4423,-6.906 -1.2753,-3.3261 -4.2398,-4.3646 -25.5929,-8.9652 -13.2828,-2.8618 -38.7751,-7.4822 -56.6495,-10.2675 -17.8743,-2.7853 -34.1441,-5.3934 -36.155,-5.796 -3.6422,-0.7291 -4.9763,-4.5371 -2.1922,-6.2578 1.9404,-1.1992 74.501,11.1262 95.4414,16.212 21.8384,5.3041 23.7049,5.265 22.3344,-0.4682 -1.5481,-6.4771 -1.7703,-6.6831 -8.3942,-7.7788 -3.3201,-0.5493 -20.661,-3.8553 -38.5355,-7.3465 -17.8744,-3.4912 -39.8112,-7.479 -48.7483,-8.8616 -22.5552,-3.4895 -64.2071,-12.0655 -67.7136,-13.942 -1.5976,-0.8552 -4.7479,-1.0921 -7.0006,-0.5267 -3.4815,0.8738 -4.0957,1.9567 -4.0957,7.2221 v 6.1944 l 10.9684,1.0553 c 20.2472,1.9479 32.0235,4.7627 32.6073,7.7935 0.6923,3.5953 -0.016,3.5524 -24.0764,-1.457 -28.52,-5.938 -29.4974,-5.9152 -31.2415,0.7272 -0.9707,3.6972 -2.1565,5.1419 -3.7259,4.5396 -1.2663,-0.4859 -2.6943,-0.2489 -3.1735,0.5266 -0.4794,0.7755 2.2393,1.8806 6.0413,2.4557 16.9733,2.5677 58.8555,9.3934 75.1608,12.2494 9.8308,1.7219 22.6272,3.9318 28.4365,4.9107 22.0234,3.7115 69.4275,13.8747 74.8792,16.0537 6.9752,2.7882 12.8678,2.1623 12.8678,-1.3669 z m -6.4997,-34.7996 c 0,-0.3135 -0.7555,-2.7372 -1.6789,-5.3861 -1.4911,-4.2773 -2.9455,-5.1201 -13.0003,-7.5333 -6.2269,-1.4944 -14.0633,-3.9681 -17.4143,-5.497 l -6.0928,-2.78 5.1059,-0.5813 c 2.8083,-0.3197 9.4948,0.556 14.8591,1.946 14.2313,3.6877 14.8595,3.5484 13.3897,-2.9684 -1.8062,-8.0085 -2.8956,-9.1289 -8.8771,-9.1289 -2.9656,0 -10.4175,-1.0679 -16.5598,-2.3733 -6.1422,-1.3053 -25.0609,-5.0108 -42.0417,-8.2344 -39.6175,-7.521 -62.736,-12.0806 -65.8103,-12.9795 -3.4392,-1.0057 -5.8344,0.9756 -7.013,5.8007 -1.0028,4.1054 -0.8613,4.1719 13.1556,6.1747 14.7171,2.1027 63.4641,11.714 77.417,15.2639 4.3999,1.1194 8.332,3.046 8.738,4.2812 0.8508,2.5881 2.5931,2.8092 -34.6119,-4.3913 -47.9071,-9.2718 -73.9381,-13.6381 -76.1795,-12.7781 -1.2229,0.4694 -2.5567,3.1224 -2.9637,5.8955 -0.8194,5.5827 -1.1275,5.4174 14.9578,8.0235 22.1377,3.5868 90.8935,16.8597 113.7463,21.958 24.1114,5.3793 30.8739,6.5375 30.8739,5.2881 z m -10.2998,-43.6038 c -2.3022,-7.9514 -0.9315,-7.4223 -34.863,-13.4543 -24.51,-4.3572 -37.7094,-8.1214 -37.7094,-10.754 0,-2.0294 0.6359,-1.9696 20.6355,1.9418 21.2066,4.1474 46.5337,7.8366 47.5085,6.9202 0.3898,-0.3665 0.012,-2.663 -0.8452,-5.1032 -1.0458,-2.9861 -2.8717,-4.5844 -5.5837,-4.8877 -5.5748,-0.6238 -39.7022,-7.9474 -59.1119,-12.6852 -17.362,-4.2381 -33.2762,-5.1019 -36.4022,-1.976 -4.3664,4.3665 -2.2327,7.5626 5.7687,8.6404 10.7882,1.4534 15.5218,3.0702 16.3611,5.588 0.5753,1.7257 -1.5409,1.9544 -10.4606,1.1312 -6.1499,-0.5677 -13.3754,-1.4503 -16.0565,-1.9615 -5.7647,-1.0989 -9.7686,1.59 -11.1266,7.4725 l -0.9543,4.1336 18.2275,2.0726 c 25.663,2.9179 70.6993,11.2667 92.1626,17.085 14.4188,3.9087 14.7541,3.7966 12.4495,-4.1634 z m -8.7815,-37.7794 c -0.5414,-2.832 -2.4125,-4.5752 -6.2819,-5.8521 -6.4589,-2.1317 -7.2663,-4.8166 -1.4484,-4.8166 3.1368,0 4.0567,-0.833 4.0374,-3.6561 -0.038,-5.5158 -1.7823,-7.1456 -8.9123,-8.3248 -3.5748,-0.5912 -15.418,-2.9791 -26.318,-5.3064 -23.9809,-5.1203 -31.8555,-4.5289 -31.0604,2.3326 0.4941,4.2632 0.9211,4.4212 19.1921,7.0989 10.2779,1.5063 18.8698,2.7932 19.0932,2.8598 0.2234,0.067 0.4062,0.8412 0.4062,1.7212 0,1.9443 -15.3001,0.7572 -32.7771,-2.5431 -9.7607,-1.8432 -13.3743,-1.9397 -16.6556,-0.4446 -5.9144,2.6947 -5.5996,7.8874 0.4782,7.8874 2.5679,0 16.2783,2.2412 30.4678,4.9804 40.517,7.8217 48.4773,9.2087 49.549,8.6337 0.5505,-0.2953 0.6539,-2.352 0.2298,-4.5703 z m -25.2335,-10.0267 c -1.77,-1.7699 0.3689,-3.8919 3.9224,-3.8919 1.909,0 3.0056,0.8525 2.6131,2.0312 -0.7726,2.3204 -4.9006,3.4956 -6.5355,1.8607 z m 17.5391,-24.61 c -0.626,-3.3514 -1.3351,-6.2946 -1.5756,-6.5404 -0.2406,-0.2458 -5.1112,-1.1857 -10.8235,-2.0888 -5.7123,-0.9029 -14.6756,-2.4006 -19.9184,-3.3282 -11.8902,-2.1033 -18.9042,0.1454 -18.9042,6.0611 0,3.3536 0.8064,3.8871 6.0935,4.0312 3.3515,0.091 13.7715,1.8119 23.1555,3.8232 24.3247,5.2139 23.3289,5.3027 21.9727,-1.9581 z m -3.1119,-15.976 c -0.5426,-1.4137 -0.9863,-3.2418 -0.9863,-4.0625 0,-0.8205 -1.6979,-1.4921 -3.773,-1.4921 -2.0751,0 -7.1758,-1.1593 -11.3348,-2.5766 -9.2413,-3.1487 -19.0162,-0.9242 -19.0162,4.3277 0,2.6234 1.2365,3.1466 7.7186,3.2662 4.2451,0.078 11.3745,0.7118 15.8432,1.4078 12.5032,1.9475 12.6263,1.9382 11.5485,-0.8705 z m -3.25,-14.6246 c -0.5424,-1.4137 -0.9863,-3.2557 -0.9863,-4.0934 0,-0.8376 -1.7599,-1.0812 -3.9111,-0.5413 -2.151,0.5399 -5.4883,0.1375 -7.416,-0.8943 -2.6832,-1.436 -4.0685,-1.4083 -5.9076,0.1182 -3.3697,2.7966 -0.5983,5.0697 7.859,6.4458 11.0135,1.7918 11.4307,1.7502 10.362,-1.0347 z m -2.6112,-12.8667 c 0,-1.3406 0.7312,-2.4374 1.6249,-2.4374 0.8937,0 1.6249,0.7312 1.6249,1.625 0,0.8937 1.131,1.6249 2.5134,1.6249 2.1579,0 2.1005,-0.5669 -0.4063,-4.0113 -2.6646,-3.6611 -10.2012,-5.7887 -10.254,-2.8948 -0.013,0.6703 -0.4631,2.864 -1.0019,4.8749 -0.7902,2.9486 -0.3143,3.6561 2.4596,3.6561 1.9739,0 3.4394,-1.0385 3.4394,-2.4374 z m 106.4339,246.1793 c 0.5523,-0.8938 1.3267,-1.625 1.7208,-1.625 0.3942,0 0.7166,0.7312 0.7166,1.625 0,0.8937 -0.7743,1.6249 -1.7208,1.6249 -0.9466,0 -1.2689,-0.7312 -0.7166,-1.6249 z m 10.5622,-6.1153 c 0,-2.6801 53.8885,-37.7582 58.0057,-37.7582 5.4474,0 0.1662,4.0798 -24.2882,18.7633 -14.5228,8.7203 -28.0505,16.9247 -30.0614,18.2321 -2.0108,1.3073 -3.6561,1.6506 -3.6561,0.7628 z m -29.4753,-6.9384 c 4.5154,-3.7616 6.726,-4.068 6.726,-0.9322 0,2.4287 -3.4565,4.2698 -7.8514,4.1822 -2.1659,-0.043 -1.9397,-0.6964 1.1254,-3.25 z m 19.7256,-10.2076 c 0,-1.8235 21.1631,-14.2801 22.6743,-13.3462 3.3987,2.1004 1.5248,4.2269 -7.0765,8.0309 -10.1907,4.5068 -15.5978,6.3493 -15.5978,5.3153 z m -38.6583,-2.9466 c 0.9505,-2.8517 17.8027,-14.0953 23.0269,-15.3632 8.3127,-2.0178 4.0991,2.8924 -8.8311,10.2909 -12.5831,7.2 -15.219,8.1418 -14.1958,5.0723 z m 68.909,-17.2055 c -1.3899,-1.3901 2.2218,-5.3349 4.8846,-5.3349 1.2311,0 2.2384,0.5552 2.2384,1.234 0,1.8023 -5.9791,5.2446 -7.123,4.1009 z m -32.6069,-3.6084 c 2.6118,-2.5773 39.6002,-24.4758 41.3417,-24.4758 6.71,0 -6.7624,9.9501 -26.1047,19.2797 -13.7564,6.6354 -18.2475,8.167 -15.237,5.1961 z m -34.9921,-4.5703 c 0.043,-2.0376 33.9336,-18.987 35.2777,-17.6428 1.7491,1.749 -3.1212,5.0587 -18.3599,12.4762 -12.9748,6.3155 -16.9673,7.5348 -16.9178,5.1666 z m 86.8847,-6.8664 c 0.5388,-0.8719 5.8834,-4.2728 11.8767,-7.5575 5.9934,-3.2846 14.5531,-8.3019 19.0217,-11.1496 10.6018,-6.756 13.812,-7.8816 13.812,-4.8431 0,1.3125 -0.7713,2.3863 -1.7141,2.3863 -0.9428,0 -5.8786,2.7776 -10.9684,6.1723 -8.6901,5.7958 -29.4319,16.577 -31.8926,16.577 -0.6133,0 -0.6742,-0.7134 -0.1353,-1.5854 z m 35.8544,-1.4566 c 4.4438,-4.0792 16.1284,-11.5825 18.037,-11.5825 5.0048,0 1.6405,5.1004 -5.8771,8.9099 -7.8203,3.9627 -15.374,5.6231 -12.1599,2.6726 z m -130.8893,-9.7052 c 0,-1.7574 24.8647,-18.1267 27.5341,-18.1267 0.9432,0 1.7149,0.6672 1.7149,1.4827 0,1.2093 -7.2611,5.7472 -28.0303,17.5177 -0.6703,0.3799 -1.2187,-0.013 -1.2187,-0.8737 z m 51.9983,-4.7659 c 0,-2.9497 6.3788,-7.2552 9.1651,-6.186 2.4058,0.9233 2.4695,1.3703 0.4668,3.2726 -2.9836,2.834 -9.6319,4.8449 -9.6319,2.9134 z m 40.6236,-0.036 c 0,-2.2963 3.8109,-5.1998 6.8247,-5.1998 4.3295,0 3.5468,3.0938 -1.2432,4.9151 -5.0514,1.9205 -5.5815,1.9476 -5.5815,0.2847 z m 12.9996,-10.0746 c 0,-0.8938 1.0968,-1.6251 2.4374,-1.6251 1.3406,0 2.4374,0.7313 2.4374,1.6251 0,0.8937 -1.0968,1.6249 -2.4374,1.6249 -1.3406,0 -2.4374,-0.7312 -2.4374,-1.6249 z m -110.4964,-4.43 c 0,-3.327 46.5687,-32.9438 51.7999,-32.9438 4.1728,0 -1.6415,6.3925 -10.7614,11.8315 -17.2693,10.2991 -41.0385,22.5272 -41.0385,21.1123 z m 79.6224,-0.1393 c 0,-2.5858 16.954,-13.3052 21.0436,-13.3052 0.9381,0 1.7056,1.0596 1.7056,2.3545 0,1.2948 -4.6747,4.5853 -10.3882,7.3122 -11.1455,5.3193 -12.361,5.6771 -12.361,3.6385 z m 43.0754,-1.9537 c 1.2169,-1.9691 12.9147,-8.1015 15.4538,-8.1015 3.1586,0 -0.073,3.2049 -6.5764,6.523 -6.9079,3.524 -10.4714,4.1577 -8.8774,1.5785 z m 33.297,0.275 c 0,-0.7552 1.4264,-2.664 3.1699,-4.2417 2.9686,-2.6866 3.0029,-3.1234 0.5405,-6.8814 -2.217,-3.3835 -3.4787,-3.8536 -8.0447,-2.997 -4.131,0.775 -5.4154,0.4525 -5.4154,-1.3597 0,-1.3066 0.8687,-2.6652 1.9305,-3.0191 2.0804,-0.6934 -3.1759,-9.2306 -5.742,-9.3259 -2.7963,-0.1036 -10.813,-6.8498 -10.813,-9.099 0,-3.5426 9.1862,-2.8903 12.9996,0.9232 1.7875,1.7873 3.2499,3.9811 3.2499,4.8748 0,0.8937 1.17,1.6249 2.5999,1.6249 1.4299,0 5.2689,2.7139 8.531,6.0308 3.2621,3.3169 8.1248,7.1559 10.8059,8.5309 5.2307,2.6828 6.5172,7.861 2.4374,9.8108 -1.3406,0.6408 -4.7439,2.3657 -7.563,3.8333 -5.6534,2.9431 -8.6865,3.3952 -8.6865,1.2951 z m -108.8713,-1.7588 c 0,-1.7361 7.8693,-8.2428 9.9688,-8.2428 2.9249,0 1.2442,4.607 -2.5994,7.1255 -4.4869,2.9399 -7.3694,3.3769 -7.3694,1.1173 z m -54.3853,-13.0361 c -1.1006,-1.7807 4.7,-5.3516 6.2217,-3.8299 1.1572,1.1573 -1.9323,5.3734 -3.9378,5.3734 -0.7315,0 -1.7593,-0.6945 -2.2839,-1.5435 z m 119.3831,-3.3576 c 0,-2.2594 11.0316,-7.3592 12.5729,-5.8124 0.6815,0.6839 -0.4871,2.6431 -2.5971,4.3536 -4.1013,3.325 -9.9758,4.184 -9.9758,1.4588 z m -28.4365,-6.4736 c 0.5523,-0.8937 1.6923,-1.6249 2.5333,-1.6249 0.8409,0 1.529,0.7312 1.529,1.6249 0,0.8938 -1.14,1.6251 -2.5333,1.6251 -1.3934,0 -2.0814,-0.7313 -1.529,-1.6251 z m -74.6663,-1.4518 c 4.4708,-4.2048 27.628,-17.6846 28.9632,-16.8593 2.0499,1.2669 -5.6688,7.3306 -17.0848,13.4214 -8.8178,4.7046 -15.1845,6.5473 -11.8784,3.4379 z m 50.2985,-6.6623 c -0.5004,-0.8099 0.573,-2.2661 2.3854,-3.2361 2.5956,-1.3891 3.2955,-1.2708 3.2955,0.5571 0,2.7429 -4.3682,4.8029 -5.6809,2.679 z m 41.4297,-3.2604 c 0,-0.8937 0.7312,-1.625 1.6249,-1.625 0.8938,0 1.625,0.7313 1.625,1.625 0,0.8936 -0.7312,1.6249 -1.625,1.6249 -0.8937,0 -1.6249,-0.7313 -1.6249,-1.6249 z m -103.9965,-6.3893 c 0,-2.1339 8.914,-8.2353 12.0316,-8.2353 4.3848,0 2.8953,2.4815 -3.7219,6.2006 -7.0066,3.9379 -8.3097,4.2569 -8.3097,2.0347 z m 47.428,-3.4619 c 0.3911,-1.1732 1.6708,-2.4528 2.8438,-2.8438 1.2187,-0.4062 1.828,0.2032 1.4217,1.4219 -0.3909,1.173 -1.6706,2.4526 -2.8436,2.8436 -1.2187,0.4063 -1.8281,-0.203 -1.4219,-1.4217 z m -27.9286,-7.6983 c 0,-2.2964 3.8107,-5.1998 6.8247,-5.1998 3.8566,0 3.7343,2.7023 -0.2182,4.8177 -3.7546,2.0094 -6.6065,2.1744 -6.6065,0.3821 z m -28.3472,-5.055 c -1.1288,-1.8264 4.9887,-6.3178 16.5123,-12.1235 8.7094,-4.3879 13.4598,-5.3798 13.4598,-2.8104 0,2.2542 -28.907,16.6571 -29.9721,14.9339 z m 43.305,-3.6305 c 0.9692,-2.9725 13.8223,-9.9953 15.9205,-8.6986 2.2766,1.407 0.6528,3.6437 -4.576,6.3027 -7.7039,3.9175 -12.1465,4.8559 -11.3445,2.3959 z m -45.8319,-12.4343 c 0,-1.4549 23.5067,-13.329 26.3871,-13.329 1.0776,0 0.4469,1.5123 -1.4015,3.3607 -3.542,3.542 -24.9856,12.0972 -24.9856,9.9683 z m 40.6237,-3.6303 c 0,-2.0945 4.6295,-3.9858 6.1165,-2.4989 0.6059,0.6059 0.026,1.7819 -1.2888,2.6133 -3.1455,1.9893 -4.8277,1.9493 -4.8277,-0.1145 z m -6.4998,-12.8914 c 0,-2.0307 5.7635,-5.1267 7.0845,-3.8057 1.42,1.42 -2.1455,5.3735 -4.846,5.3735 -1.2311,0 -2.2385,-0.7056 -2.2385,-1.5678 z m -30.2139,-1.9287 c -1.5411,-2.4935 4.3241,-6.7938 6.4147,-4.7033 0.9997,0.9996 0.8131,2.4647 -0.5178,4.0684 -2.4771,2.9848 -4.3218,3.1833 -5.8969,0.6349 z" id="path859"/>
      </g>
    </g>
  </g>
</svg>